M48
;DRILL file {KiCad 4.0.7-e2-6376~58~ubuntu16.04.1} date Mon May 21 22:34:43 2018
;FORMAT={2:4/ absolute / inch / suppress leading zeros}
FMAT,2
INCH,TZ
T1C0.024
T2C0.028
T3C0.030
T4C0.031
T5C0.035
T6C0.043
T7C0.079
T8C0.087
%
G90
G05
M72
T1
X61417Y-34744
X62205Y-34744
T2
X62992Y-30610
X64992Y-30610
X70079Y-36091
X70079Y-38091
T3
X70472Y-30610
X70472Y-31398
X70472Y-32185
X70472Y-32972
T4
X61220Y-32382
X62205Y-32382
T5
X63583Y-28839
X64583Y-28839
X67701Y-37500
X68701Y-37500
X70669Y-34138
X70669Y-35138
T6
X63583Y-32185
X63583Y-32972
X63583Y-33760
X63583Y-34547
X68701Y-31791
X68701Y-32579
X68701Y-33366
X68701Y-34154
T7
X66142Y-28642
X66142Y-37697
T8
X61811Y-37500
X70472Y-28839
T0
M30
