G04 #@! TF.FileFunction,Legend,Bot*
%FSLAX46Y46*%
G04 Gerber Fmt 4.6, Leading zero omitted, Abs format (unit mm)*
G04 Created by KiCad (PCBNEW 4.0.7-e2-6376~58~ubuntu16.04.1) date Mon May 21 22:34:23 2018*
%MOMM*%
%LPD*%
G01*
G04 APERTURE LIST*
%ADD10C,0.100000*%
%ADD11C,0.150000*%
G04 APERTURE END LIST*
D10*
D11*
X165500000Y-92750000D02*
X165500000Y-95250000D01*
X170500000Y-92750000D02*
X170500000Y-95250000D01*
X168000000Y-97750000D02*
G75*
G03X170500000Y-95250000I0J2500000D01*
G01*
X165500000Y-95250000D02*
G75*
G03X168000000Y-97750000I2500000J0D01*
G01*
X168000000Y-70750000D02*
G75*
G03X165500000Y-73250000I0J-2500000D01*
G01*
X170500000Y-73250000D02*
G75*
G03X168000000Y-70750000I-2500000J0D01*
G01*
X170500000Y-73250000D02*
X170500000Y-75750000D01*
X165500000Y-75750000D02*
X165500000Y-73250000D01*
X160500000Y-76750000D02*
X175500000Y-76750000D01*
X175500000Y-76750000D02*
X175500000Y-91750000D01*
X175500000Y-91750000D02*
X160500000Y-91750000D01*
X160500000Y-91750000D02*
X160500000Y-76750000D01*
X176500000Y-92750000D02*
X176500000Y-75750000D01*
X176500000Y-75750000D02*
X159500000Y-75750000D01*
X159500000Y-75750000D02*
X159500000Y-92750000D01*
X159500000Y-92750000D02*
X176500000Y-92750000D01*
X165690477Y-91202381D02*
X165690477Y-90202381D01*
X165690477Y-90678571D02*
X165119048Y-90678571D01*
X165119048Y-91202381D02*
X165119048Y-90202381D01*
X164500001Y-91202381D02*
X164595239Y-91154762D01*
X164642858Y-91107143D01*
X164690477Y-91011905D01*
X164690477Y-90726190D01*
X164642858Y-90630952D01*
X164595239Y-90583333D01*
X164500001Y-90535714D01*
X164357143Y-90535714D01*
X164261905Y-90583333D01*
X164214286Y-90630952D01*
X164166667Y-90726190D01*
X164166667Y-91011905D01*
X164214286Y-91107143D01*
X164261905Y-91154762D01*
X164357143Y-91202381D01*
X164500001Y-91202381D01*
X163595239Y-91202381D02*
X163690477Y-91154762D01*
X163738096Y-91059524D01*
X163738096Y-90202381D01*
X162785714Y-91202381D02*
X162785714Y-90202381D01*
X162785714Y-91154762D02*
X162880952Y-91202381D01*
X163071429Y-91202381D01*
X163166667Y-91154762D01*
X163214286Y-91107143D01*
X163261905Y-91011905D01*
X163261905Y-90726190D01*
X163214286Y-90630952D01*
X163166667Y-90583333D01*
X163071429Y-90535714D01*
X162880952Y-90535714D01*
X162785714Y-90583333D01*
X161928571Y-91154762D02*
X162023809Y-91202381D01*
X162214286Y-91202381D01*
X162309524Y-91154762D01*
X162357143Y-91059524D01*
X162357143Y-90678571D01*
X162309524Y-90583333D01*
X162214286Y-90535714D01*
X162023809Y-90535714D01*
X161928571Y-90583333D01*
X161880952Y-90678571D01*
X161880952Y-90773810D01*
X162357143Y-90869048D01*
X161452381Y-91202381D02*
X161452381Y-90535714D01*
X161452381Y-90726190D02*
X161404762Y-90630952D01*
X161357143Y-90583333D01*
X161261905Y-90535714D01*
X161166666Y-90535714D01*
M02*
