G04 #@! TF.FileFunction,Copper,L2,Bot,Signal*
%FSLAX46Y46*%
G04 Gerber Fmt 4.6, Leading zero omitted, Abs format (unit mm)*
G04 Created by KiCad (PCBNEW 4.0.7-e2-6376~58~ubuntu16.04.1) date Mon May 21 22:34:23 2018*
%MOMM*%
%LPD*%
G01*
G04 APERTURE LIST*
%ADD10C,0.100000*%
%ADD11C,2.100000*%
%ADD12C,1.600000*%
%ADD13R,1.200000X1.200000*%
%ADD14C,1.200000*%
%ADD15R,1.800000X1.800000*%
%ADD16C,1.800000*%
%ADD17O,1.800000X1.800000*%
%ADD18C,4.400000*%
%ADD19C,1.400000*%
%ADD20O,1.400000X1.400000*%
%ADD21C,1.524000*%
%ADD22C,1.000000*%
%ADD23C,0.254000*%
G04 APERTURE END LIST*
D10*
D11*
X168000000Y-95750000D03*
X168000000Y-72750000D03*
D12*
X155500000Y-82250000D03*
X158000000Y-82250000D03*
D13*
X156000000Y-88250000D03*
D14*
X158000000Y-88250000D03*
D15*
X174500000Y-95250000D03*
D16*
X171960000Y-95250000D03*
D15*
X161500000Y-73250000D03*
D16*
X164040000Y-73250000D03*
D15*
X179500000Y-89250000D03*
D17*
X179500000Y-86710000D03*
D18*
X157000000Y-95250000D03*
X179000000Y-73250000D03*
D19*
X178000000Y-96750000D03*
D20*
X178000000Y-91670000D03*
D19*
X160000000Y-77750000D03*
D20*
X165080000Y-77750000D03*
D21*
X179000000Y-83750000D03*
X179000000Y-81750000D03*
X179000000Y-79750000D03*
X179000000Y-77750000D03*
D12*
X161500000Y-87750000D03*
X161500000Y-85750000D03*
X161500000Y-83750000D03*
X161500000Y-81750000D03*
X174500000Y-86750000D03*
X174500000Y-84750000D03*
X174500000Y-82750000D03*
X174500000Y-80750000D03*
D22*
X158000000Y-88250000D02*
X158000000Y-87750000D01*
X158000000Y-87750000D02*
X160000000Y-85750000D01*
X160000000Y-85750000D02*
X161500000Y-85750000D01*
X179000000Y-79750000D02*
X176500000Y-79750000D01*
X176500000Y-82750000D02*
X174500000Y-82750000D01*
X176500000Y-79750000D02*
X176500000Y-82750000D01*
X179000000Y-77750000D02*
X174500000Y-77750000D01*
X174500000Y-77750000D02*
X174500000Y-80750000D01*
D23*
G36*
X176598005Y-71642005D02*
X176165493Y-72683610D01*
X176164509Y-73811442D01*
X176595202Y-74853801D01*
X177392005Y-75651995D01*
X178433610Y-76084507D01*
X179561442Y-76085491D01*
X180603801Y-75654798D01*
X181290000Y-74969795D01*
X181290000Y-97540000D01*
X179098245Y-97540000D01*
X179131098Y-97507204D01*
X179334768Y-97016713D01*
X179335231Y-96485617D01*
X179132418Y-95994771D01*
X178757204Y-95618902D01*
X178266713Y-95415232D01*
X177735617Y-95414769D01*
X177244771Y-95617582D01*
X176868902Y-95992796D01*
X176665232Y-96483287D01*
X176664769Y-97014383D01*
X176867582Y-97505229D01*
X176902292Y-97540000D01*
X158718799Y-97540000D01*
X159401995Y-96857995D01*
X159723511Y-96083697D01*
X166314708Y-96083697D01*
X166570694Y-96703229D01*
X167044278Y-97177640D01*
X167663362Y-97434707D01*
X168333697Y-97435292D01*
X168953229Y-97179306D01*
X169427640Y-96705722D01*
X169684707Y-96086638D01*
X169685292Y-95416303D01*
X169517137Y-95009336D01*
X170413542Y-95009336D01*
X170439161Y-95619460D01*
X170623357Y-96064148D01*
X170879841Y-96150554D01*
X171780395Y-95250000D01*
X170879841Y-94349446D01*
X170623357Y-94435852D01*
X170413542Y-95009336D01*
X169517137Y-95009336D01*
X169429306Y-94796771D01*
X168955722Y-94322360D01*
X168588417Y-94169841D01*
X171059446Y-94169841D01*
X171960000Y-95070395D01*
X171974143Y-95056253D01*
X172153748Y-95235858D01*
X172139605Y-95250000D01*
X172153748Y-95264143D01*
X171974143Y-95443748D01*
X171960000Y-95429605D01*
X171059446Y-96330159D01*
X171145852Y-96586643D01*
X171719336Y-96796458D01*
X172329460Y-96770839D01*
X172774148Y-96586643D01*
X172860553Y-96330161D01*
X172975110Y-96444718D01*
X173011588Y-96408240D01*
X173135910Y-96601441D01*
X173348110Y-96746431D01*
X173600000Y-96797440D01*
X175400000Y-96797440D01*
X175635317Y-96753162D01*
X175851441Y-96614090D01*
X175996431Y-96401890D01*
X176047440Y-96150000D01*
X176047440Y-94350000D01*
X176003162Y-94114683D01*
X175864090Y-93898559D01*
X175651890Y-93753569D01*
X175400000Y-93702560D01*
X173600000Y-93702560D01*
X173364683Y-93746838D01*
X173148559Y-93885910D01*
X173009402Y-94089574D01*
X172975110Y-94055282D01*
X172860553Y-94169839D01*
X172774148Y-93913357D01*
X172200664Y-93703542D01*
X171590540Y-93729161D01*
X171145852Y-93913357D01*
X171059446Y-94169841D01*
X168588417Y-94169841D01*
X168336638Y-94065293D01*
X167666303Y-94064708D01*
X167046771Y-94320694D01*
X166572360Y-94794278D01*
X166315293Y-95413362D01*
X166314708Y-96083697D01*
X159723511Y-96083697D01*
X159834507Y-95816390D01*
X159835491Y-94688558D01*
X159404798Y-93646199D01*
X158607995Y-92848005D01*
X157566390Y-92415493D01*
X156438558Y-92414509D01*
X155396199Y-92845202D01*
X154710000Y-93530205D01*
X154710000Y-91643846D01*
X176665000Y-91643846D01*
X176665000Y-91696154D01*
X176766621Y-92207036D01*
X177056012Y-92640142D01*
X177489118Y-92929533D01*
X178000000Y-93031154D01*
X178510882Y-92929533D01*
X178943988Y-92640142D01*
X179233379Y-92207036D01*
X179335000Y-91696154D01*
X179335000Y-91643846D01*
X179233379Y-91132964D01*
X179009190Y-90797440D01*
X180400000Y-90797440D01*
X180635317Y-90753162D01*
X180851441Y-90614090D01*
X180996431Y-90401890D01*
X181047440Y-90150000D01*
X181047440Y-88350000D01*
X181003162Y-88114683D01*
X180864090Y-87898559D01*
X180651890Y-87753569D01*
X180635656Y-87750281D01*
X180918155Y-87327491D01*
X181035000Y-86740072D01*
X181035000Y-86679928D01*
X180918155Y-86092509D01*
X180585409Y-85594519D01*
X180087419Y-85261773D01*
X179500000Y-85144928D01*
X178912581Y-85261773D01*
X178414591Y-85594519D01*
X178081845Y-86092509D01*
X177965000Y-86679928D01*
X177965000Y-86740072D01*
X178081845Y-87327491D01*
X178362837Y-87748026D01*
X178148559Y-87885910D01*
X178003569Y-88098110D01*
X177952560Y-88350000D01*
X177952560Y-90150000D01*
X177983082Y-90312211D01*
X177489118Y-90410467D01*
X177056012Y-90699858D01*
X176766621Y-91132964D01*
X176665000Y-91643846D01*
X154710000Y-91643846D01*
X154710000Y-87650000D01*
X154752560Y-87650000D01*
X154752560Y-88850000D01*
X154796838Y-89085317D01*
X154935910Y-89301441D01*
X155148110Y-89446431D01*
X155400000Y-89497440D01*
X156600000Y-89497440D01*
X156835317Y-89453162D01*
X157051441Y-89314090D01*
X157146993Y-89174245D01*
X157201178Y-89228430D01*
X157316871Y-89112737D01*
X157366383Y-89338164D01*
X157831036Y-89497807D01*
X158321413Y-89467482D01*
X158633617Y-89338164D01*
X158683130Y-89112735D01*
X158000000Y-88429605D01*
X157985858Y-88443748D01*
X157806253Y-88264143D01*
X157820395Y-88250000D01*
X158179605Y-88250000D01*
X158862735Y-88933130D01*
X159088164Y-88883617D01*
X159247807Y-88418964D01*
X159217482Y-87928587D01*
X159088164Y-87616383D01*
X158862735Y-87566870D01*
X158179605Y-88250000D01*
X157820395Y-88250000D01*
X157806253Y-88235858D01*
X157985858Y-88056253D01*
X158000000Y-88070395D01*
X158683130Y-87387265D01*
X158633617Y-87161836D01*
X158168964Y-87002193D01*
X157678587Y-87032518D01*
X157366383Y-87161836D01*
X157316871Y-87387263D01*
X157201178Y-87271570D01*
X157146351Y-87326397D01*
X157064090Y-87198559D01*
X156851890Y-87053569D01*
X156600000Y-87002560D01*
X155400000Y-87002560D01*
X155164683Y-87046838D01*
X154948559Y-87185910D01*
X154803569Y-87398110D01*
X154752560Y-87650000D01*
X154710000Y-87650000D01*
X154710000Y-85533223D01*
X160053035Y-85533223D01*
X160080222Y-86103454D01*
X160246136Y-86504005D01*
X160492253Y-86578139D01*
X160377378Y-86693014D01*
X160452455Y-86768091D01*
X160284176Y-86936077D01*
X160065250Y-87463309D01*
X160064752Y-88034187D01*
X160282757Y-88561800D01*
X160686077Y-88965824D01*
X161213309Y-89184750D01*
X161784187Y-89185248D01*
X162311800Y-88967243D01*
X162715824Y-88563923D01*
X162777365Y-88415715D01*
X163000000Y-88460000D01*
X173000000Y-88460000D01*
X173271705Y-88405954D01*
X173502046Y-88252046D01*
X173655954Y-88021705D01*
X173670228Y-87949947D01*
X173686077Y-87965824D01*
X174213309Y-88184750D01*
X174784187Y-88185248D01*
X175311800Y-87967243D01*
X175715824Y-87563923D01*
X175934750Y-87036691D01*
X175935248Y-86465813D01*
X175717243Y-85938200D01*
X175529397Y-85750026D01*
X175715824Y-85563923D01*
X175934750Y-85036691D01*
X175935248Y-84465813D01*
X175753795Y-84026661D01*
X177602758Y-84026661D01*
X177814990Y-84540303D01*
X178207630Y-84933629D01*
X178720900Y-85146757D01*
X179276661Y-85147242D01*
X179790303Y-84935010D01*
X180183629Y-84542370D01*
X180396757Y-84029100D01*
X180397242Y-83473339D01*
X180185010Y-82959697D01*
X179792370Y-82566371D01*
X179526273Y-82455878D01*
X179000000Y-81929605D01*
X178473698Y-82455907D01*
X178209697Y-82564990D01*
X177816371Y-82957630D01*
X177603243Y-83470900D01*
X177602758Y-84026661D01*
X175753795Y-84026661D01*
X175717243Y-83938200D01*
X175664136Y-83885000D01*
X176500000Y-83885000D01*
X176934346Y-83798603D01*
X177302566Y-83552566D01*
X177548603Y-83184346D01*
X177635000Y-82750000D01*
X177635000Y-82136869D01*
X177777603Y-82481143D01*
X178019787Y-82550608D01*
X178820395Y-81750000D01*
X179179605Y-81750000D01*
X179980213Y-82550608D01*
X180222397Y-82481143D01*
X180409144Y-81957698D01*
X180381362Y-81402632D01*
X180222397Y-81018857D01*
X179980213Y-80949392D01*
X179179605Y-81750000D01*
X178820395Y-81750000D01*
X178806253Y-81735858D01*
X178985858Y-81556253D01*
X179000000Y-81570395D01*
X179526302Y-81044093D01*
X179790303Y-80935010D01*
X180183629Y-80542370D01*
X180396757Y-80029100D01*
X180397242Y-79473339D01*
X180185010Y-78959697D01*
X179975658Y-78749979D01*
X180183629Y-78542370D01*
X180396757Y-78029100D01*
X180397242Y-77473339D01*
X180185010Y-76959697D01*
X179792370Y-76566371D01*
X179279100Y-76353243D01*
X178723339Y-76352758D01*
X178209697Y-76564990D01*
X178159600Y-76615000D01*
X174500000Y-76615000D01*
X174065654Y-76701397D01*
X173697434Y-76947434D01*
X173451397Y-77315654D01*
X173365000Y-77750000D01*
X173365000Y-79855394D01*
X173284176Y-79936077D01*
X173222635Y-80084285D01*
X173000000Y-80040000D01*
X163000000Y-80040000D01*
X162728295Y-80094046D01*
X162497954Y-80247954D01*
X162344046Y-80478295D01*
X162329772Y-80550053D01*
X162313923Y-80534176D01*
X161786691Y-80315250D01*
X161215813Y-80314752D01*
X160688200Y-80532757D01*
X160284176Y-80936077D01*
X160065250Y-81463309D01*
X160064752Y-82034187D01*
X160282757Y-82561800D01*
X160470603Y-82749974D01*
X160284176Y-82936077D01*
X160065250Y-83463309D01*
X160064752Y-84034187D01*
X160282757Y-84561800D01*
X160452512Y-84731852D01*
X160377378Y-84806986D01*
X160492253Y-84921861D01*
X160246136Y-84995995D01*
X160053035Y-85533223D01*
X154710000Y-85533223D01*
X154710000Y-83475758D01*
X155213309Y-83684750D01*
X155784187Y-83685248D01*
X156311800Y-83467243D01*
X156521663Y-83257745D01*
X157171861Y-83257745D01*
X157245995Y-83503864D01*
X157783223Y-83696965D01*
X158353454Y-83669778D01*
X158754005Y-83503864D01*
X158828139Y-83257745D01*
X158000000Y-82429605D01*
X157171861Y-83257745D01*
X156521663Y-83257745D01*
X156715824Y-83063923D01*
X156743423Y-82997456D01*
X156746136Y-83004005D01*
X156992255Y-83078139D01*
X157820395Y-82250000D01*
X158179605Y-82250000D01*
X159007745Y-83078139D01*
X159253864Y-83004005D01*
X159446965Y-82466777D01*
X159419778Y-81896546D01*
X159253864Y-81495995D01*
X159007745Y-81421861D01*
X158179605Y-82250000D01*
X157820395Y-82250000D01*
X156992255Y-81421861D01*
X156746136Y-81495995D01*
X156743804Y-81502483D01*
X156717243Y-81438200D01*
X156521640Y-81242255D01*
X157171861Y-81242255D01*
X158000000Y-82070395D01*
X158828139Y-81242255D01*
X158754005Y-80996136D01*
X158216777Y-80803035D01*
X157646546Y-80830222D01*
X157245995Y-80996136D01*
X157171861Y-81242255D01*
X156521640Y-81242255D01*
X156313923Y-81034176D01*
X155786691Y-80815250D01*
X155215813Y-80814752D01*
X154710000Y-81023749D01*
X154710000Y-78014383D01*
X158664769Y-78014383D01*
X158867582Y-78505229D01*
X159242796Y-78881098D01*
X159733287Y-79084768D01*
X160264383Y-79085231D01*
X160755229Y-78882418D01*
X161131098Y-78507204D01*
X161334768Y-78016713D01*
X161335000Y-77750000D01*
X163718846Y-77750000D01*
X163820467Y-78260882D01*
X164109858Y-78693988D01*
X164542964Y-78983379D01*
X165053846Y-79085000D01*
X165106154Y-79085000D01*
X165617036Y-78983379D01*
X166050142Y-78693988D01*
X166339533Y-78260882D01*
X166441154Y-77750000D01*
X166339533Y-77239118D01*
X166050142Y-76806012D01*
X165617036Y-76516621D01*
X165106154Y-76415000D01*
X165053846Y-76415000D01*
X164542964Y-76516621D01*
X164109858Y-76806012D01*
X163820467Y-77239118D01*
X163718846Y-77750000D01*
X161335000Y-77750000D01*
X161335231Y-77485617D01*
X161132418Y-76994771D01*
X160757204Y-76618902D01*
X160266713Y-76415232D01*
X159735617Y-76414769D01*
X159244771Y-76617582D01*
X158868902Y-76992796D01*
X158665232Y-77483287D01*
X158664769Y-78014383D01*
X154710000Y-78014383D01*
X154710000Y-72350000D01*
X159952560Y-72350000D01*
X159952560Y-74150000D01*
X159996838Y-74385317D01*
X160135910Y-74601441D01*
X160348110Y-74746431D01*
X160600000Y-74797440D01*
X162400000Y-74797440D01*
X162635317Y-74753162D01*
X162851441Y-74614090D01*
X162990598Y-74410426D01*
X163024890Y-74444718D01*
X163139447Y-74330161D01*
X163225852Y-74586643D01*
X163799336Y-74796458D01*
X164409460Y-74770839D01*
X164854148Y-74586643D01*
X164940554Y-74330159D01*
X164040000Y-73429605D01*
X164025858Y-73443748D01*
X163846253Y-73264143D01*
X163860395Y-73250000D01*
X164219605Y-73250000D01*
X165120159Y-74150554D01*
X165376643Y-74064148D01*
X165586458Y-73490664D01*
X165569370Y-73083697D01*
X166314708Y-73083697D01*
X166570694Y-73703229D01*
X167044278Y-74177640D01*
X167663362Y-74434707D01*
X168333697Y-74435292D01*
X168953229Y-74179306D01*
X169427640Y-73705722D01*
X169684707Y-73086638D01*
X169685292Y-72416303D01*
X169429306Y-71796771D01*
X168955722Y-71322360D01*
X168336638Y-71065293D01*
X167666303Y-71064708D01*
X167046771Y-71320694D01*
X166572360Y-71794278D01*
X166315293Y-72413362D01*
X166314708Y-73083697D01*
X165569370Y-73083697D01*
X165560839Y-72880540D01*
X165376643Y-72435852D01*
X165120159Y-72349446D01*
X164219605Y-73250000D01*
X163860395Y-73250000D01*
X163846253Y-73235858D01*
X164025858Y-73056253D01*
X164040000Y-73070395D01*
X164940554Y-72169841D01*
X164854148Y-71913357D01*
X164280664Y-71703542D01*
X163670540Y-71729161D01*
X163225852Y-71913357D01*
X163139447Y-72169839D01*
X163024890Y-72055282D01*
X162988412Y-72091760D01*
X162864090Y-71898559D01*
X162651890Y-71753569D01*
X162400000Y-71702560D01*
X160600000Y-71702560D01*
X160364683Y-71746838D01*
X160148559Y-71885910D01*
X160003569Y-72098110D01*
X159952560Y-72350000D01*
X154710000Y-72350000D01*
X154710000Y-70960000D01*
X177281201Y-70960000D01*
X176598005Y-71642005D01*
X176598005Y-71642005D01*
G37*
X176598005Y-71642005D02*
X176165493Y-72683610D01*
X176164509Y-73811442D01*
X176595202Y-74853801D01*
X177392005Y-75651995D01*
X178433610Y-76084507D01*
X179561442Y-76085491D01*
X180603801Y-75654798D01*
X181290000Y-74969795D01*
X181290000Y-97540000D01*
X179098245Y-97540000D01*
X179131098Y-97507204D01*
X179334768Y-97016713D01*
X179335231Y-96485617D01*
X179132418Y-95994771D01*
X178757204Y-95618902D01*
X178266713Y-95415232D01*
X177735617Y-95414769D01*
X177244771Y-95617582D01*
X176868902Y-95992796D01*
X176665232Y-96483287D01*
X176664769Y-97014383D01*
X176867582Y-97505229D01*
X176902292Y-97540000D01*
X158718799Y-97540000D01*
X159401995Y-96857995D01*
X159723511Y-96083697D01*
X166314708Y-96083697D01*
X166570694Y-96703229D01*
X167044278Y-97177640D01*
X167663362Y-97434707D01*
X168333697Y-97435292D01*
X168953229Y-97179306D01*
X169427640Y-96705722D01*
X169684707Y-96086638D01*
X169685292Y-95416303D01*
X169517137Y-95009336D01*
X170413542Y-95009336D01*
X170439161Y-95619460D01*
X170623357Y-96064148D01*
X170879841Y-96150554D01*
X171780395Y-95250000D01*
X170879841Y-94349446D01*
X170623357Y-94435852D01*
X170413542Y-95009336D01*
X169517137Y-95009336D01*
X169429306Y-94796771D01*
X168955722Y-94322360D01*
X168588417Y-94169841D01*
X171059446Y-94169841D01*
X171960000Y-95070395D01*
X171974143Y-95056253D01*
X172153748Y-95235858D01*
X172139605Y-95250000D01*
X172153748Y-95264143D01*
X171974143Y-95443748D01*
X171960000Y-95429605D01*
X171059446Y-96330159D01*
X171145852Y-96586643D01*
X171719336Y-96796458D01*
X172329460Y-96770839D01*
X172774148Y-96586643D01*
X172860553Y-96330161D01*
X172975110Y-96444718D01*
X173011588Y-96408240D01*
X173135910Y-96601441D01*
X173348110Y-96746431D01*
X173600000Y-96797440D01*
X175400000Y-96797440D01*
X175635317Y-96753162D01*
X175851441Y-96614090D01*
X175996431Y-96401890D01*
X176047440Y-96150000D01*
X176047440Y-94350000D01*
X176003162Y-94114683D01*
X175864090Y-93898559D01*
X175651890Y-93753569D01*
X175400000Y-93702560D01*
X173600000Y-93702560D01*
X173364683Y-93746838D01*
X173148559Y-93885910D01*
X173009402Y-94089574D01*
X172975110Y-94055282D01*
X172860553Y-94169839D01*
X172774148Y-93913357D01*
X172200664Y-93703542D01*
X171590540Y-93729161D01*
X171145852Y-93913357D01*
X171059446Y-94169841D01*
X168588417Y-94169841D01*
X168336638Y-94065293D01*
X167666303Y-94064708D01*
X167046771Y-94320694D01*
X166572360Y-94794278D01*
X166315293Y-95413362D01*
X166314708Y-96083697D01*
X159723511Y-96083697D01*
X159834507Y-95816390D01*
X159835491Y-94688558D01*
X159404798Y-93646199D01*
X158607995Y-92848005D01*
X157566390Y-92415493D01*
X156438558Y-92414509D01*
X155396199Y-92845202D01*
X154710000Y-93530205D01*
X154710000Y-91643846D01*
X176665000Y-91643846D01*
X176665000Y-91696154D01*
X176766621Y-92207036D01*
X177056012Y-92640142D01*
X177489118Y-92929533D01*
X178000000Y-93031154D01*
X178510882Y-92929533D01*
X178943988Y-92640142D01*
X179233379Y-92207036D01*
X179335000Y-91696154D01*
X179335000Y-91643846D01*
X179233379Y-91132964D01*
X179009190Y-90797440D01*
X180400000Y-90797440D01*
X180635317Y-90753162D01*
X180851441Y-90614090D01*
X180996431Y-90401890D01*
X181047440Y-90150000D01*
X181047440Y-88350000D01*
X181003162Y-88114683D01*
X180864090Y-87898559D01*
X180651890Y-87753569D01*
X180635656Y-87750281D01*
X180918155Y-87327491D01*
X181035000Y-86740072D01*
X181035000Y-86679928D01*
X180918155Y-86092509D01*
X180585409Y-85594519D01*
X180087419Y-85261773D01*
X179500000Y-85144928D01*
X178912581Y-85261773D01*
X178414591Y-85594519D01*
X178081845Y-86092509D01*
X177965000Y-86679928D01*
X177965000Y-86740072D01*
X178081845Y-87327491D01*
X178362837Y-87748026D01*
X178148559Y-87885910D01*
X178003569Y-88098110D01*
X177952560Y-88350000D01*
X177952560Y-90150000D01*
X177983082Y-90312211D01*
X177489118Y-90410467D01*
X177056012Y-90699858D01*
X176766621Y-91132964D01*
X176665000Y-91643846D01*
X154710000Y-91643846D01*
X154710000Y-87650000D01*
X154752560Y-87650000D01*
X154752560Y-88850000D01*
X154796838Y-89085317D01*
X154935910Y-89301441D01*
X155148110Y-89446431D01*
X155400000Y-89497440D01*
X156600000Y-89497440D01*
X156835317Y-89453162D01*
X157051441Y-89314090D01*
X157146993Y-89174245D01*
X157201178Y-89228430D01*
X157316871Y-89112737D01*
X157366383Y-89338164D01*
X157831036Y-89497807D01*
X158321413Y-89467482D01*
X158633617Y-89338164D01*
X158683130Y-89112735D01*
X158000000Y-88429605D01*
X157985858Y-88443748D01*
X157806253Y-88264143D01*
X157820395Y-88250000D01*
X158179605Y-88250000D01*
X158862735Y-88933130D01*
X159088164Y-88883617D01*
X159247807Y-88418964D01*
X159217482Y-87928587D01*
X159088164Y-87616383D01*
X158862735Y-87566870D01*
X158179605Y-88250000D01*
X157820395Y-88250000D01*
X157806253Y-88235858D01*
X157985858Y-88056253D01*
X158000000Y-88070395D01*
X158683130Y-87387265D01*
X158633617Y-87161836D01*
X158168964Y-87002193D01*
X157678587Y-87032518D01*
X157366383Y-87161836D01*
X157316871Y-87387263D01*
X157201178Y-87271570D01*
X157146351Y-87326397D01*
X157064090Y-87198559D01*
X156851890Y-87053569D01*
X156600000Y-87002560D01*
X155400000Y-87002560D01*
X155164683Y-87046838D01*
X154948559Y-87185910D01*
X154803569Y-87398110D01*
X154752560Y-87650000D01*
X154710000Y-87650000D01*
X154710000Y-85533223D01*
X160053035Y-85533223D01*
X160080222Y-86103454D01*
X160246136Y-86504005D01*
X160492253Y-86578139D01*
X160377378Y-86693014D01*
X160452455Y-86768091D01*
X160284176Y-86936077D01*
X160065250Y-87463309D01*
X160064752Y-88034187D01*
X160282757Y-88561800D01*
X160686077Y-88965824D01*
X161213309Y-89184750D01*
X161784187Y-89185248D01*
X162311800Y-88967243D01*
X162715824Y-88563923D01*
X162777365Y-88415715D01*
X163000000Y-88460000D01*
X173000000Y-88460000D01*
X173271705Y-88405954D01*
X173502046Y-88252046D01*
X173655954Y-88021705D01*
X173670228Y-87949947D01*
X173686077Y-87965824D01*
X174213309Y-88184750D01*
X174784187Y-88185248D01*
X175311800Y-87967243D01*
X175715824Y-87563923D01*
X175934750Y-87036691D01*
X175935248Y-86465813D01*
X175717243Y-85938200D01*
X175529397Y-85750026D01*
X175715824Y-85563923D01*
X175934750Y-85036691D01*
X175935248Y-84465813D01*
X175753795Y-84026661D01*
X177602758Y-84026661D01*
X177814990Y-84540303D01*
X178207630Y-84933629D01*
X178720900Y-85146757D01*
X179276661Y-85147242D01*
X179790303Y-84935010D01*
X180183629Y-84542370D01*
X180396757Y-84029100D01*
X180397242Y-83473339D01*
X180185010Y-82959697D01*
X179792370Y-82566371D01*
X179526273Y-82455878D01*
X179000000Y-81929605D01*
X178473698Y-82455907D01*
X178209697Y-82564990D01*
X177816371Y-82957630D01*
X177603243Y-83470900D01*
X177602758Y-84026661D01*
X175753795Y-84026661D01*
X175717243Y-83938200D01*
X175664136Y-83885000D01*
X176500000Y-83885000D01*
X176934346Y-83798603D01*
X177302566Y-83552566D01*
X177548603Y-83184346D01*
X177635000Y-82750000D01*
X177635000Y-82136869D01*
X177777603Y-82481143D01*
X178019787Y-82550608D01*
X178820395Y-81750000D01*
X179179605Y-81750000D01*
X179980213Y-82550608D01*
X180222397Y-82481143D01*
X180409144Y-81957698D01*
X180381362Y-81402632D01*
X180222397Y-81018857D01*
X179980213Y-80949392D01*
X179179605Y-81750000D01*
X178820395Y-81750000D01*
X178806253Y-81735858D01*
X178985858Y-81556253D01*
X179000000Y-81570395D01*
X179526302Y-81044093D01*
X179790303Y-80935010D01*
X180183629Y-80542370D01*
X180396757Y-80029100D01*
X180397242Y-79473339D01*
X180185010Y-78959697D01*
X179975658Y-78749979D01*
X180183629Y-78542370D01*
X180396757Y-78029100D01*
X180397242Y-77473339D01*
X180185010Y-76959697D01*
X179792370Y-76566371D01*
X179279100Y-76353243D01*
X178723339Y-76352758D01*
X178209697Y-76564990D01*
X178159600Y-76615000D01*
X174500000Y-76615000D01*
X174065654Y-76701397D01*
X173697434Y-76947434D01*
X173451397Y-77315654D01*
X173365000Y-77750000D01*
X173365000Y-79855394D01*
X173284176Y-79936077D01*
X173222635Y-80084285D01*
X173000000Y-80040000D01*
X163000000Y-80040000D01*
X162728295Y-80094046D01*
X162497954Y-80247954D01*
X162344046Y-80478295D01*
X162329772Y-80550053D01*
X162313923Y-80534176D01*
X161786691Y-80315250D01*
X161215813Y-80314752D01*
X160688200Y-80532757D01*
X160284176Y-80936077D01*
X160065250Y-81463309D01*
X160064752Y-82034187D01*
X160282757Y-82561800D01*
X160470603Y-82749974D01*
X160284176Y-82936077D01*
X160065250Y-83463309D01*
X160064752Y-84034187D01*
X160282757Y-84561800D01*
X160452512Y-84731852D01*
X160377378Y-84806986D01*
X160492253Y-84921861D01*
X160246136Y-84995995D01*
X160053035Y-85533223D01*
X154710000Y-85533223D01*
X154710000Y-83475758D01*
X155213309Y-83684750D01*
X155784187Y-83685248D01*
X156311800Y-83467243D01*
X156521663Y-83257745D01*
X157171861Y-83257745D01*
X157245995Y-83503864D01*
X157783223Y-83696965D01*
X158353454Y-83669778D01*
X158754005Y-83503864D01*
X158828139Y-83257745D01*
X158000000Y-82429605D01*
X157171861Y-83257745D01*
X156521663Y-83257745D01*
X156715824Y-83063923D01*
X156743423Y-82997456D01*
X156746136Y-83004005D01*
X156992255Y-83078139D01*
X157820395Y-82250000D01*
X158179605Y-82250000D01*
X159007745Y-83078139D01*
X159253864Y-83004005D01*
X159446965Y-82466777D01*
X159419778Y-81896546D01*
X159253864Y-81495995D01*
X159007745Y-81421861D01*
X158179605Y-82250000D01*
X157820395Y-82250000D01*
X156992255Y-81421861D01*
X156746136Y-81495995D01*
X156743804Y-81502483D01*
X156717243Y-81438200D01*
X156521640Y-81242255D01*
X157171861Y-81242255D01*
X158000000Y-82070395D01*
X158828139Y-81242255D01*
X158754005Y-80996136D01*
X158216777Y-80803035D01*
X157646546Y-80830222D01*
X157245995Y-80996136D01*
X157171861Y-81242255D01*
X156521640Y-81242255D01*
X156313923Y-81034176D01*
X155786691Y-80815250D01*
X155215813Y-80814752D01*
X154710000Y-81023749D01*
X154710000Y-78014383D01*
X158664769Y-78014383D01*
X158867582Y-78505229D01*
X159242796Y-78881098D01*
X159733287Y-79084768D01*
X160264383Y-79085231D01*
X160755229Y-78882418D01*
X161131098Y-78507204D01*
X161334768Y-78016713D01*
X161335000Y-77750000D01*
X163718846Y-77750000D01*
X163820467Y-78260882D01*
X164109858Y-78693988D01*
X164542964Y-78983379D01*
X165053846Y-79085000D01*
X165106154Y-79085000D01*
X165617036Y-78983379D01*
X166050142Y-78693988D01*
X166339533Y-78260882D01*
X166441154Y-77750000D01*
X166339533Y-77239118D01*
X166050142Y-76806012D01*
X165617036Y-76516621D01*
X165106154Y-76415000D01*
X165053846Y-76415000D01*
X164542964Y-76516621D01*
X164109858Y-76806012D01*
X163820467Y-77239118D01*
X163718846Y-77750000D01*
X161335000Y-77750000D01*
X161335231Y-77485617D01*
X161132418Y-76994771D01*
X160757204Y-76618902D01*
X160266713Y-76415232D01*
X159735617Y-76414769D01*
X159244771Y-76617582D01*
X158868902Y-76992796D01*
X158665232Y-77483287D01*
X158664769Y-78014383D01*
X154710000Y-78014383D01*
X154710000Y-72350000D01*
X159952560Y-72350000D01*
X159952560Y-74150000D01*
X159996838Y-74385317D01*
X160135910Y-74601441D01*
X160348110Y-74746431D01*
X160600000Y-74797440D01*
X162400000Y-74797440D01*
X162635317Y-74753162D01*
X162851441Y-74614090D01*
X162990598Y-74410426D01*
X163024890Y-74444718D01*
X163139447Y-74330161D01*
X163225852Y-74586643D01*
X163799336Y-74796458D01*
X164409460Y-74770839D01*
X164854148Y-74586643D01*
X164940554Y-74330159D01*
X164040000Y-73429605D01*
X164025858Y-73443748D01*
X163846253Y-73264143D01*
X163860395Y-73250000D01*
X164219605Y-73250000D01*
X165120159Y-74150554D01*
X165376643Y-74064148D01*
X165586458Y-73490664D01*
X165569370Y-73083697D01*
X166314708Y-73083697D01*
X166570694Y-73703229D01*
X167044278Y-74177640D01*
X167663362Y-74434707D01*
X168333697Y-74435292D01*
X168953229Y-74179306D01*
X169427640Y-73705722D01*
X169684707Y-73086638D01*
X169685292Y-72416303D01*
X169429306Y-71796771D01*
X168955722Y-71322360D01*
X168336638Y-71065293D01*
X167666303Y-71064708D01*
X167046771Y-71320694D01*
X166572360Y-71794278D01*
X166315293Y-72413362D01*
X166314708Y-73083697D01*
X165569370Y-73083697D01*
X165560839Y-72880540D01*
X165376643Y-72435852D01*
X165120159Y-72349446D01*
X164219605Y-73250000D01*
X163860395Y-73250000D01*
X163846253Y-73235858D01*
X164025858Y-73056253D01*
X164040000Y-73070395D01*
X164940554Y-72169841D01*
X164854148Y-71913357D01*
X164280664Y-71703542D01*
X163670540Y-71729161D01*
X163225852Y-71913357D01*
X163139447Y-72169839D01*
X163024890Y-72055282D01*
X162988412Y-72091760D01*
X162864090Y-71898559D01*
X162651890Y-71753569D01*
X162400000Y-71702560D01*
X160600000Y-71702560D01*
X160364683Y-71746838D01*
X160148559Y-71885910D01*
X160003569Y-72098110D01*
X159952560Y-72350000D01*
X154710000Y-72350000D01*
X154710000Y-70960000D01*
X177281201Y-70960000D01*
X176598005Y-71642005D01*
G36*
X161693748Y-85735858D02*
X161679605Y-85750000D01*
X161693748Y-85764142D01*
X161514143Y-85943748D01*
X161500000Y-85929605D01*
X161485858Y-85943748D01*
X161306252Y-85764142D01*
X161320395Y-85750000D01*
X161306252Y-85735858D01*
X161485858Y-85556253D01*
X161500000Y-85570395D01*
X161514142Y-85556252D01*
X161693748Y-85735858D01*
X161693748Y-85735858D01*
G37*
X161693748Y-85735858D02*
X161679605Y-85750000D01*
X161693748Y-85764142D01*
X161514143Y-85943748D01*
X161500000Y-85929605D01*
X161485858Y-85943748D01*
X161306252Y-85764142D01*
X161320395Y-85750000D01*
X161306252Y-85735858D01*
X161485858Y-85556253D01*
X161500000Y-85570395D01*
X161514142Y-85556252D01*
X161693748Y-85735858D01*
M02*
